<?xml version="1.0" standalone="no"?>
<!DOCTYPE svg PUBLIC "-//W3C//DTD SVG 20010904//EN"
 "http://www.w3.org/TR/2001/REC-SVG-20010904/DTD/svg10.dtd">
<svg version="1.0" xmlns="http://www.w3.org/2000/svg"
 width="270.000000pt" height="270.000000pt" viewBox="0 0 270.000000 270.000000"
 preserveAspectRatio="xMidYMid meet">
<metadata>
Created by potrace 1.11, written by Peter Selinger 2001-2013
</metadata>
<g transform="translate(0.000000,270.000000) scale(0.100000,-0.100000)"
fill="#000000" stroke="none">
<path d="M1556 2628 c-7 -13 -42 -72 -76 -133 -73 -129 -77 -136 -187 -328
-47 -82 -82 -154 -79 -162 3 -8 49 -90 102 -182 122 -211 131 -227 164 -288
15 -27 41 -72 57 -100 l29 -50 365 -3 365 -2 47 82 c26 46 59 103 73 128 158
275 237 417 237 425 0 6 -46 91 -103 190 -108 187 -124 215 -203 358 l-49 87
-364 0 -364 0 -14 -22z"/>
<path d="M295 1770 c-66 -115 -124 -218 -130 -227 -5 -10 -31 -55 -57 -100
-27 -45 -48 -87 -48 -93 0 -6 52 -102 117 -213 130 -226 153 -266 203 -355
l35 -62 365 0 365 0 69 122 c38 68 76 134 85 148 8 14 21 34 27 45 6 11 47 84
92 162 45 78 82 147 82 153 0 6 -80 150 -177 320 l-178 310 -365 0 -365 0
-120 -210z"/>
<path d="M1549 1280 c-8 -17 -88 -158 -178 -315 -90 -156 -161 -290 -158 -297
4 -7 84 -148 179 -313 l173 -300 364 -3 c400 -3 369 -7 403 58 7 13 35 63 62
110 274 476 267 462 249 490 -15 21 -231 396 -298 516 -53 94 -2 84 -416 84
l-365 0 -15 -30z"/>
</g>
</svg>
