<?xml version="1.0" standalone="no"?>
<!DOCTYPE svg PUBLIC "-//W3C//DTD SVG 20010904//EN"
 "http://www.w3.org/TR/2001/REC-SVG-20010904/DTD/svg10.dtd">
<svg version="1.0" xmlns="http://www.w3.org/2000/svg"
 width="16.000000pt" height="16.000000pt" viewBox="0 0 16.000000 16.000000"
 preserveAspectRatio="xMidYMid meet">
<metadata>
Created by potrace 1.11, written by Peter Selinger 2001-2013
</metadata>
<g transform="translate(0.000000,16.000000) scale(0.001887,-0.001887)"
fill="#000000" stroke="none">
<path d="M7735 8469 c-22 -4 -43 -5 -47 -2 -5 2 -13 1 -19 -3 -7 -4 -28 -8
-48 -10 -32 -2 -82 -8 -176 -19 -16 -2 -52 -6 -80 -9 -27 -3 -66 -7 -85 -10
-72 -10 -146 -18 -180 -20 -19 0 -37 -3 -40 -6 -3 -3 -115 -61 -250 -129 -135
-68 -291 -148 -347 -177 -57 -29 -103 -50 -103 -46 0 4 -4 2 -8 -4 -4 -6 -63
-39 -132 -73 -69 -35 -129 -67 -134 -72 -6 -5 -18 -9 -27 -9 -10 0 -19 -3 -21
-7 -5 -12 -620 -323 -637 -323 -5 0 -11 -4 -13 -8 -1 -4 -109 -61 -238 -126
-496 -250 -646 -329 -663 -349 -28 -34 -36 -44 -131 -172 -107 -143 -98 -132
-134 -175 -15 -19 -39 -51 -52 -70 -14 -19 -30 -42 -37 -50 -14 -17 -306 -403
-338 -446 -22 -30 -70 -93 -83 -109 -4 -5 -35 -46 -67 -90 -33 -44 -62 -82
-65 -85 -3 -3 -48 -61 -99 -130 -261 -346 -260 -344 -283 -370 -9 -10 -14 -21
-11 -23 6 -7 -21 -14 -72 -22 -49 -6 -81 -12 -103 -19 -9 -3 -35 -7 -57 -10
-22 -4 -62 -11 -90 -16 -65 -13 -88 -18 -155 -30 -30 -6 -66 -12 -80 -15 -14
-3 -50 -9 -80 -15 -30 -6 -66 -12 -80 -15 -40 -8 -96 -19 -150 -29 -19 -3 -46
-8 -60 -11 -14 -3 -38 -7 -55 -10 -16 -3 -41 -8 -55 -10 -59 -12 -77 -15 -105
-20 -16 -3 -43 -8 -60 -12 -16 -4 -37 -7 -45 -8 -8 -1 -28 -4 -45 -8 -16 -4
-43 -9 -60 -12 -16 -2 -41 -7 -55 -10 -14 -3 -86 -17 -160 -31 -74 -14 -142
-27 -150 -29 -8 -2 -20 -4 -27 -4 -6 -1 -18 -7 -25 -14 -28 -29 -223 -190
-235 -194 -6 -3 -37 -64 -67 -136 -106 -255 -188 -452 -190 -462 -2 -5 -9 -23
-16 -40 -27 -62 -40 -93 -95 -230 -90 -222 -105 -259 -115 -280 -13 -28 -74
-179 -76 -185 0 -3 -5 -16 -11 -30 -6 -14 -27 -65 -48 -115 -20 -49 -43 -105
-52 -124 -14 -30 -14 -39 2 -90 9 -31 18 -63 20 -71 1 -8 5 -22 8 -30 4 -12
66 -237 83 -303 8 -32 13 -52 30 -112 9 -33 17 -64 19 -70 18 -77 29 -105 44
-106 73 -4 383 0 388 5 3 3 13 6 21 6 7 0 26 9 40 19 15 10 29 19 32 19 11 1
61 23 165 72 187 89 315 149 321 149 2 0 21 9 42 20 20 11 96 48 167 82 219
103 245 113 259 110 5 -1 32 -4 60 -7 28 -3 65 -7 81 -9 17 -2 37 -4 46 -4 13
-1 113 -73 349 -251 14 -11 36 -27 49 -37 13 -10 31 -25 41 -33 9 -8 24 -19
32 -25 14 -9 119 -88 143 -107 12 -10 70 -54 115 -88 105 -79 225 -175 228
-182 2 -4 8 -8 13 -8 5 0 17 -7 26 -15 10 -8 47 -37 83 -65 36 -28 72 -57 80
-63 8 -7 53 -41 100 -77 47 -36 87 -67 90 -70 3 -3 44 -36 92 -74 49 -37 88
-71 88 -76 0 -5 5 -21 12 -37 6 -15 12 -33 13 -38 2 -6 12 -31 23 -55 26 -58
27 -66 17 -120 -4 -25 -9 -54 -10 -65 -2 -11 -11 -58 -20 -105 -9 -47 -18 -94
-20 -105 -4 -27 -14 -85 -20 -115 -3 -14 -8 -42 -10 -64 -3 -21 -7 -41 -10
-45 -2 -4 -7 -30 -11 -57 -3 -27 -8 -58 -11 -69 -6 -31 -11 -57 -17 -95 -8
-52 -16 -93 -21 -116 -3 -12 -7 -39 -10 -60 -4 -21 -9 -47 -11 -57 -3 -10 -8
-34 -10 -54 -3 -20 -7 -39 -9 -43 -4 -6 18 -99 80 -333 3 -9 7 -27 10 -38 2
-12 7 -24 10 -28 4 -3 180 -7 391 -8 l385 -3 37 28 c20 15 43 33 50 40 8 6 34
26 60 44 44 30 70 50 96 73 6 6 36 28 66 50 30 22 64 48 75 57 11 9 56 44 100
77 44 33 85 64 90 68 6 4 46 35 90 68 44 33 82 62 85 65 3 3 59 45 125 95 66
49 122 92 125 95 6 7 233 179 263 200 12 8 26 20 30 27 4 7 15 13 22 13 8 0
15 5 15 10 0 6 4 10 10 10 22 0 52 45 100 146 28 59 50 110 50 115 0 5 5 9 12
9 6 0 9 3 5 6 -3 3 3 22 13 42 15 29 18 51 15 107 -9 137 -16 231 -21 280 -2
28 -7 82 -9 120 -3 39 -7 99 -10 135 -2 36 -7 99 -10 140 -6 85 -13 179 -20
260 -2 30 -7 96 -11 145 -8 114 -10 149 -19 260 -11 153 -14 187 -20 277 l-5
88 61 77 c33 43 66 85 72 93 7 8 35 44 62 80 28 35 77 98 110 140 33 42 71 92
85 110 14 18 30 38 35 44 6 6 27 34 47 61 47 62 63 83 163 210 44 56 91 117
105 135 14 18 32 41 40 51 8 10 25 31 36 46 12 15 50 64 85 109 35 45 74 94
86 110 75 98 189 244 213 274 126 153 156 202 165 275 3 22 11 63 19 92 8 28
11 54 8 57 -3 3 -1 6 4 6 5 0 10 12 10 28 1 15 11 68 22 117 12 50 23 104 26
120 3 17 10 45 15 64 6 18 10 36 9 40 -1 3 4 33 12 66 7 33 13 66 13 73 0 6 3
12 6 12 3 0 6 10 7 23 0 12 9 58 18 102 10 44 20 89 22 100 8 37 25 120 30
145 3 14 9 39 13 55 5 17 9 37 10 45 0 8 19 98 41 200 23 102 43 196 46 210 3
13 12 56 20 95 9 38 17 79 20 90 2 11 13 63 24 115 12 52 23 106 26 120 3 14
7 36 9 50 2 14 4 25 5 25 3 0 29 125 35 167 2 15 9 46 16 70 6 24 13 54 15 68
2 14 7 36 10 50 12 51 15 66 20 90 4 20 13 65 19 90 33 138 33 124 6 305 -6
39 -13 87 -16 108 -10 73 -15 102 -19 122 -2 11 -7 49 -11 85 -4 36 -9 74 -11
85 -2 11 -6 38 -9 60 -3 22 -8 60 -11 85 -9 74 -35 87 -139 69z"/>
</g>
</svg>
