<svg id="Layer_1" data-name="Layer 1" xmlns="http://www.w3.org/2000/svg" viewBox="0 0 70.04 69.08"><defs><style>.cls-1{fill:#e6e6e6;}.cls-2{fill:#e16a26;}.cls-3{fill:#7a7a7a;}</style></defs><title>i7-icon</title><rect class="cls-1" x="0.14" y="0.02" width="20.32" height="20.32" transform="translate(0.09 20.46) rotate(-89.86)"/><rect class="cls-1" x="0.08" y="24.4" width="20.32" height="20.32" transform="translate(-24.35 44.72) rotate(-89.86)"/><polyline class="cls-1" points="0 68.92 0.05 48.6 20.36 48.65 20.32 68.96"/><polygon class="cls-2" points="44.95 20.02 34.79 27.66 24.63 19.97 24.68 0.06 45 0.1 44.95 20.02"/><polyline class="cls-3" points="24.51 68.97 24.56 48.66 24.57 44.76 24.62 24.84 34.78 32.53 44.94 24.89 44.89 44.8 44.88 48.7 44.83 69.02"/><rect class="cls-1" x="49.7" y="0.14" width="20.32" height="20.32" transform="translate(49.42 70.14) rotate(-89.86)"/><rect class="cls-1" x="49.64" y="24.52" width="20.32" height="20.32" transform="translate(24.98 94.4) rotate(-89.86)"/><polyline class="cls-1" points="49.56 69.03 49.61 48.72 69.93 48.77 69.88 69.08"/></svg>