<?xml version="1.0" encoding="utf-8"?>
<!-- Generator: Adobe Illustrator 21.0.2, SVG Export Plug-In . SVG Version: 6.00 Build 0)  -->
<svg version="1.1" id="Layer_1" xmlns="http://www.w3.org/2000/svg" xmlns:xlink="http://www.w3.org/1999/xlink" x="0px" y="0px"
	 viewBox="0 0 93.801 106.31" style="enable-background:new 0 0 93.801 106.31;" xml:space="preserve">
<style type="text/css">
	.st0{fill:url(#SVGID_1_);}
	.st1{opacity:0.1;fill:#FFFFFF;}
	.st2{opacity:0.2;fill:#FFFFFF;}
	.st3{opacity:0.4;}
	.st4{fill:#FFFFFF;}
	.st5{display:none;opacity:0.2;}
	.st6{opacity:0.4;fill:#FFFFFF;}
	.st7{display:none;opacity:0.2;fill:#FFFFFF;}
	.st8{display:none;opacity:0.7;fill:#478FCC;}
	.st9{opacity:0.3;fill:#FFFFFF;}
	.st10{display:none;opacity:0.4;fill:#4066B0;}
	.st11{display:none;opacity:0.3;fill:#FFFFFF;}
	.st12{display:none;opacity:0.8;fill:#61BB47;}
	.st13{display:none;opacity:0.7;fill:#17BFD2;}
</style>
<g>
	<linearGradient id="SVGID_1_" gradientUnits="userSpaceOnUse" x1="21.9513" y1="91.1561" x2="92.702" y2="0.5994">
		<stop  offset="0" style="stop-color:#4DAF4E"/>
		<stop  offset="0.6224" style="stop-color:#4B9CA2"/>
		<stop  offset="1" style="stop-color:#478FCC"/>
	</linearGradient>
	<polygon class="st0" points="91.915,0 82.309,1.134 50.16,17.492 33.566,39.404 11.752,43.507 8.301,46.384 0,66.619 2.563,76.008 
		7.551,76.002 20.515,69.908 23.353,70.24 32.803,77.4 32.804,77.397 42.154,84.679 43.206,87.336 40.659,101.432 41.939,106.253 
		51.671,106.31 69.083,93.074 70.973,88.998 69.316,66.863 86.21,45.183 93.729,9.903 92.353,0.326 	"/>
	<polygon class="st1" points="86.21,45.183 93.729,9.903 92.353,0.326 91.915,0 82.309,1.134 50.16,17.492 	"/>
	<polygon class="st1" points="86.074,8.151 82.309,1.134 50.16,17.492 68.204,31.352 86.282,45.133 93.801,9.853 	"/>
	<polygon class="st2" points="71.944,6.408 50.16,17.492 86.21,45.183 91.025,22.591 77.791,18.883 	"/>
	<polygon class="st2" points="82.309,1.134 91.915,0 92.164,0.187 32.804,77.397 23.353,70.24 20.515,69.908 7.551,76.002 
		2.563,76.008 0,66.619 8.301,46.384 11.752,43.507 33.566,39.404 50.16,17.492 	"/>
	<g class="st3">
		<polygon class="st4" points="43.206,87.336 41.939,106.253 69.083,93.074 70.973,88.998 69.316,66.863 42.154,84.679 		"/>
	</g>
	<polygon class="st2" points="69.316,66.863 70.973,88.998 41.939,106.253 	"/>
	<polygon class="st5" points="40.659,101.432 43.206,87.336 42.154,84.679 32.803,77.4 69.316,66.863 41.939,106.253 	"/>
	<polygon class="st6" points="2.563,76.007 20.515,69.908 33.566,39.404 11.752,43.507 8.301,46.384 	"/>
	<polygon class="st2" points="7.552,76.002 2.563,76.007 33.566,39.404 20.515,69.908 	"/>
	<polygon class="st7" points="20.515,69.908 23.353,70.24 32.803,77.4 33.566,39.404 	"/>
	<polygon class="st2" points="32.804,77.397 33.566,39.404 68.204,31.352 69.316,66.863 	"/>
	<polygon class="st8" points="75.468,58.962 39.587,31.453 50.16,17.492 86.21,45.183 	"/>
	<polygon class="st9" points="32.803,77.4 33.566,39.404 50.16,17.492 51.437,53.13 	"/>
	<polygon class="st2" points="32.803,77.4 69.316,66.863 86.21,45.183 51.437,53.13 	"/>
	<polygon class="st10" points="71.944,6.408 50.16,17.492 86.21,45.183 91.025,22.591 77.791,18.883 	"/>
	<polygon class="st7" points="50.16,17.492 33.566,39.404 51.437,53.13 77.743,18.869 	"/>
	<polygon class="st11" points="86.21,45.183 69.307,66.863 51.437,53.13 77.743,18.869 	"/>
	<polygon class="st10" points="51.437,53.137 69.307,66.863 86.21,45.183 	"/>
	<polygon class="st12" points="50.16,17.492 68.175,31.33 68.175,31.33 71.944,6.408 	"/>
	<polygon class="st13" points="68.175,31.33 86.21,45.183 91.025,22.591 	"/>
</g>
<g>
</g>
<g>
</g>
<g>
</g>
<g>
</g>
<g>
</g>
<g>
</g>
</svg>
